<svg xmlns="http://www.w3.org/2000/svg" viewBox="0 0 64 64" role="img" aria-label="Summitize Journal icon">
  <defs>
    <linearGradient id="g" x1="0" y1="0" x2="1" y2="1">
      <stop offset="0%" stop-color="#ff5a2f"/>
      <stop offset="60%" stop-color="#ffca3a"/>
      <stop offset="100%" stop-color="#00a99d"/>
    </linearGradient>
  </defs>
  <rect width="64" height="64" rx="14" fill="#102238"/>
  <circle cx="32" cy="32" r="22" fill="none" stroke="url(#g)" stroke-width="6"/>
  <path d="M21 26c0-4.8 3.4-8 9.2-8 4.7 0 8.1 1.8 10.7 5.1l-4.6 3c-1.7-2-3.4-3-6.1-3-2.7 0-3.8 1-3.8 2.6 0 1.8 1.4 2.5 5 3.2 6.6 1.2 10.2 3.1 10.2 8.8 0 5.5-4.3 8.8-11.1 8.8-5.9 0-9.9-2.2-12.6-6.2l4.9-2.8c1.9 2.5 4 3.9 7.8 3.9 3.2 0 4.7-1.1 4.7-2.9 0-2.1-1.5-2.7-5.6-3.6C24.7 33.4 21 31.5 21 26z" fill="#ffffff"/>
</svg>
